<?xml version="1.0" encoding="utf-8"?>
<!-- Generator: Adobe Illustrator 18.1.1, SVG Export Plug-In . SVG Version: 6.00 Build 0)  -->
<!DOCTYPE svg PUBLIC "-//W3C//DTD SVG 1.1//EN" "http://www.w3.org/Graphics/SVG/1.1/DTD/svg11.dtd">
<svg version="1.1" id="_x32_" xmlns="http://www.w3.org/2000/svg" xmlns:xlink="http://www.w3.org/1999/xlink" x="0px" y="0px"
	 viewBox="0 0 512 512" style="enable-background:new 0 0 512 512;" xml:space="preserve">
<style type="text/css">
	.st0{fill:#000000;}
</style>
<g>
	<path class="st0" d="M400.515,212.992c-10.145,0-19.92,1.476-29.258,4.016l-20.137-50.815H176.186l14.654-44.888
		c3.992-12.218,15.407-20.492,28.274-20.492h38.258V76.039h-38.258c-23.585,0-44.492,15.161-51.823,37.581l-33.194,101.678
		c-7.303-1.508-14.863-2.306-22.613-2.306C49.904,213,0.012,262.903,0,324.476c0.012,61.572,49.904,111.476,111.485,111.485
		c61.581-0.008,111.472-49.912,111.485-111.485c-0.008-45.098-26.831-83.848-65.352-101.404l10.48-32.105h166.195l13.899,35.089
		c-35.186,18.742-59.154,55.766-59.162,98.42c0.012,61.572,49.904,111.476,111.485,111.485
		c61.581-0.008,111.476-49.912,111.485-111.485C511.992,262.903,462.096,213,400.515,212.992z M166.961,269
		c14.221,14.25,22.968,33.759,22.976,55.477c-0.008,21.71-8.754,41.218-22.976,55.476c-14.25,14.217-33.758,22.968-55.476,22.976
		c-21.718-0.008-41.226-8.758-55.476-22.976c-14.222-14.258-22.968-33.767-22.976-55.476c0.008-21.718,8.754-41.226,22.976-55.477
		c14.25-14.218,33.758-22.967,55.476-22.976c4.181,0,8.246,0.42,12.238,1.048L99.71,320.63l23.549,7.693l24.028-73.606
		C154.558,258.467,161.207,263.258,166.961,269z M455.992,379.953c-14.25,14.217-33.758,22.968-55.476,22.976
		c-21.718-0.008-41.226-8.758-55.476-22.976c-14.222-14.258-22.968-33.767-22.976-55.476c0.008-21.718,8.754-41.226,22.976-55.477
		c4.621-4.604,9.831-8.564,15.452-11.911l28.509,71.952l23.032-9.129l-28.524-71.992c5.476-1.21,11.154-1.895,17.008-1.895
		c21.718,0.008,41.226,8.758,55.476,22.976c14.218,14.25,22.968,33.759,22.976,55.477
		C478.959,346.186,470.21,365.694,455.992,379.953z"/>
	<polygon class="st0" points="388.822,151.741 398.451,122.152 309.676,122.152 319.994,151.741 	"/>
</g>
</svg>
