<?xml version="1.0" encoding="utf-8"?>
<!-- Generator: Adobe Illustrator 15.1.0, SVG Export Plug-In . SVG Version: 6.00 Build 0)  -->
<!DOCTYPE svg PUBLIC "-//W3C//DTD SVG 1.1//EN" "http://www.w3.org/Graphics/SVG/1.1/DTD/svg11.dtd">
<svg version="1.1" id="_x32_" xmlns="http://www.w3.org/2000/svg" xmlns:xlink="http://www.w3.org/1999/xlink" x="0px" y="0px"
	 width="512px" height="512px" viewBox="0 0 512 512" style="enable-background:new 0 0 512 512;" xml:space="preserve">
<style type="text/css">
<![CDATA[
	.st0{fill:#4B4B4B;}
]]>
</style>
<g>
	<path class="st0" d="M506.375,296.728c-5.375-14.578-14.016-27.109-24.141-37.641c-10.156-10.547-21.844-19.219-34.063-26.219
		c-11.391-6.516-25.938-2.578-32.453,8.828c-6.531,11.406-2.594,25.938,8.828,32.453c11.781,6.719,22.297,15.438,29.266,24.75
		c3.5,4.656,6.141,9.422,7.922,14.234c1.766,4.828,2.672,9.688,2.688,14.953c-0.016,5.234-0.984,10.313-3.063,15.609
		c-3.609,9.219-10.875,19.203-22.234,28.906c-16.938,14.563-42.75,28-74.359,37.406c-31.578,9.453-68.875,15-108.766,15
		c-60.781,0.063-115.594-13.016-153.234-32.672c-18.844-9.766-33.266-21.125-42.281-32.281c-4.563-5.578-7.781-11.078-9.859-16.359
		c-2.078-5.297-3.063-10.375-3.063-15.609c0-5.266,0.938-10.125,2.703-14.953c2.625-7.203,7.313-14.375,13.766-21.094
		c6.438-6.688,14.594-12.844,23.422-17.891c11.391-6.531,15.344-21.063,8.813-32.469c-6.516-11.391-21.063-15.344-32.453-8.813
		c-16.266,9.344-31.688,21.609-43.625,37.406c-5.969,7.906-11.016,16.734-14.594,26.453C2.047,306.431-0.016,317.024,0,328.087
		c-0.016,11.438,2.25,22.625,6.359,33.031c7.219,18.281,19.781,34.094,35.563,47.625c23.797,20.281,55.188,35.906,91.672,46.844
		c36.484,10.891,78.125,16.984,122.406,16.984c67.469-0.063,128.766-14,175.172-38.031c23.172-12.094,42.781-26.75,57.234-44.469
		c7.203-8.859,13.109-18.516,17.203-28.953c4.125-10.406,6.391-21.594,6.391-33.031C512,317.024,509.953,306.431,506.375,296.728z"
		/>
	<path class="st0" d="M153.344,322.04c6.266,11.547,20.703,15.813,32.25,9.531c11.531-6.281,15.813-20.719,9.516-32.25
		c-4.766-8.688-8.484-14.594-10.891-20.844c-2.422-6.266-4.219-13.344-4.281-25.781c0.031-10.797,1.453-17.594,3.359-23.25
		c1.453-4.266,3.297-8.031,5.734-12.453c3.578-6.563,8.813-14.672,13.219-26c4.391-11.297,7.344-25.328,7.297-42.453
		c0.063-17.484-3.016-31.766-7.563-43.172c-4.547-11.438-9.859-19.547-13.406-26.156c-6.266-11.531-20.719-15.797-32.25-9.516
		c-11.547,6.281-15.797,20.734-9.531,32.266c4.797,8.672,8.5,14.578,10.922,20.828c2.406,6.25,4.219,13.313,4.25,25.75
		c-0.031,10.797-1.438,17.578-3.344,23.234c-1.453,4.266-3.313,8.031-5.734,12.453c-3.563,6.563-8.813,14.688-13.219,26
		c-4.406,11.297-7.344,25.328-7.297,42.469c-0.047,17.484,3.016,31.766,7.563,43.188
		C144.484,307.321,149.813,315.446,153.344,322.04z"/>
	<path class="st0" d="M246.969,347.556c5.25,12.047,19.266,17.547,31.297,12.297c12.047-5.25,17.563-19.25,12.313-31.297
		c-4.625-10.5-8.531-18.188-11.281-26.984c-2.734-8.813-4.781-19.266-4.813-35.938c0.016-14.484,1.594-24.281,3.781-32.344
		c1.656-6.047,3.719-11.25,6.234-16.953c3.703-8.484,8.734-18.281,12.813-31.406s6.797-29.078,6.766-49.359
		c0.031-20.703-2.797-36.906-7-50.172c-4.219-13.281-9.344-23.094-13.047-31.672c-5.25-12.047-19.25-17.563-31.281-12.313
		c-12.047,5.25-17.563,19.266-12.313,31.297c4.609,10.516,8.531,18.188,11.266,26.969c2.734,8.797,4.766,19.234,4.797,35.891
		c-0.016,14.484-1.594,24.297-3.766,32.359c-1.656,6.063-3.719,11.25-6.25,16.953c-3.703,8.469-8.734,18.281-12.797,31.406
		c-4.094,13.109-6.797,29.078-6.766,49.344c-0.031,20.719,2.797,36.938,7.016,50.219
		C238.141,329.149,243.266,338.978,246.969,347.556z"/>
	<path class="st0" d="M342.406,322.04c6.281,11.547,20.719,15.813,32.266,9.531c11.531-6.281,15.781-20.719,9.516-32.25
		c-4.781-8.672-8.484-14.594-10.906-20.844c-2.406-6.266-4.203-13.344-4.266-25.781c0.031-10.797,1.453-17.594,3.359-23.25
		c1.453-4.266,3.297-8.031,5.734-12.453c3.563-6.563,8.813-14.688,13.203-26c4.391-11.297,7.344-25.328,7.297-42.453
		c0.063-17.484-3.016-31.75-7.563-43.172c-4.531-11.422-9.844-19.531-13.375-26.141c-6.281-11.547-20.719-15.813-32.266-9.531
		s-15.797,20.719-9.531,32.25c4.781,8.688,8.484,14.594,10.906,20.828c2.422,6.266,4.203,13.328,4.25,25.766
		c-0.031,10.797-1.438,17.578-3.344,23.234c-1.453,4.266-3.297,8.031-5.719,12.453c-3.578,6.563-8.813,14.688-13.219,26
		c-4.406,11.297-7.344,25.328-7.297,42.469c-0.047,17.484,3.016,31.766,7.563,43.188
		C333.563,307.321,338.875,315.431,342.406,322.04z"/>
</g>
</svg>
